<svg xmlns="http://www.w3.org/2000/svg" width="21.069" height="28.092" viewBox="0 0 21.069 28.092">
  <g id="padlock" transform="translate(-3)">
    <path id="Path_83" data-name="Path 83" d="M21.435,26.558H5.634A2.637,2.637,0,0,1,3,23.924V11.634A2.637,2.637,0,0,1,5.634,9h15.8a2.637,2.637,0,0,1,2.634,2.634v12.29A2.637,2.637,0,0,1,21.435,26.558Zm-15.8-15.8a.879.879,0,0,0-.878.878v12.29a.879.879,0,0,0,.878.878h15.8a.879.879,0,0,0,.878-.878V11.634a.879.879,0,0,0-.878-.878Z" transform="translate(0 1.535)" fill="#818181"/>
    <path id="Path_84" data-name="Path 84" d="M19.168,12.29a.878.878,0,0,1-.878-.878V7.023a5.267,5.267,0,1,0-10.535,0v4.389a.878.878,0,1,1-1.756,0V7.023a7.023,7.023,0,1,1,14.046,0v4.389A.878.878,0,0,1,19.168,12.29Z" transform="translate(0.512)" fill="#818181"/>
    <path id="Path_85" data-name="Path 85" d="M12.341,17.682a2.341,2.341,0,1,1,2.341-2.341A2.343,2.343,0,0,1,12.341,17.682Zm0-2.926a.585.585,0,1,0,.585.585A.586.586,0,0,0,12.341,14.756Z" transform="translate(1.194 2.217)" fill="#818181"/>
    <path id="Path_86" data-name="Path 86" d="M12.128,20.725a.878.878,0,0,1-.878-.878V16.628a.878.878,0,1,1,1.756,0v3.219A.878.878,0,0,1,12.128,20.725Z" transform="translate(1.407 2.685)" fill="#818181"/>
  </g>
</svg>
