<svg xmlns="http://www.w3.org/2000/svg" style="display: none;">
    <symbol id="exit" viewBox="0 0 511 512"><title>exit</title><path d="m361.5 392v40c0 44.113281-35.886719 80-80 80h-201c-44.113281 0-80-35.886719-80-80v-352c0-44.113281 35.886719-80 80-80h201c44.113281 0 80 35.886719 80 80v40c0 11.046875-8.953125 20-20 20s-20-8.953125-20-20v-40c0-22.054688-17.945312-40-40-40h-201c-22.054688 0-40 17.945312-40 40v352c0 22.054688 17.945312 40 40 40h201c22.054688 0 40-17.945312 40-40v-40c0-11.046875 8.953125-20 20-20s20 8.953125 20 20zm136.355469-170.355469-44.785157-44.785156c-7.8125-7.8125-20.476562-7.8125-28.285156 0-7.8125 7.808594-7.8125 20.472656 0 28.28125l31.855469 31.859375h-240.140625c-11.046875 0-20 8.953125-20 20s8.953125 20 20 20h240.140625l-31.855469 31.859375c-7.8125 7.808594-7.8125 20.472656 0 28.28125 3.90625 3.90625 9.023438 5.859375 14.140625 5.859375 5.121094 0 10.238281-1.953125 14.144531-5.859375l44.785157-44.785156c19.496093-19.496094 19.496093-51.214844 0-70.710938zm0 0"/></symbol><symbol id="settings" viewBox="0 0 512 512"><title>settings</title><path d="m272.066 512h-32.133c-25.989 0-47.134-21.144-47.134-47.133v-10.871c-11.049-3.53-21.784-7.986-32.097-13.323l-7.704 7.704c-18.659 18.682-48.548 18.134-66.665-.007l-22.711-22.71c-18.149-18.129-18.671-48.008.006-66.665l7.698-7.698c-5.337-10.313-9.792-21.046-13.323-32.097h-10.87c-25.988 0-47.133-21.144-47.133-47.133v-32.134c0-25.989 21.145-47.133 47.134-47.133h10.87c3.531-11.05 7.986-21.784 13.323-32.097l-7.704-7.703c-18.666-18.646-18.151-48.528.006-66.665l22.713-22.712c18.159-18.184 48.041-18.638 66.664.006l7.697 7.697c10.313-5.336 21.048-9.792 32.097-13.323v-10.87c0-25.989 21.144-47.133 47.134-47.133h32.133c25.989 0 47.133 21.144 47.133 47.133v10.871c11.049 3.53 21.784 7.986 32.097 13.323l7.704-7.704c18.659-18.682 48.548-18.134 66.665.007l22.711 22.71c18.149 18.129 18.671 48.008-.006 66.665l-7.698 7.698c5.337 10.313 9.792 21.046 13.323 32.097h10.87c25.989 0 47.134 21.144 47.134 47.133v32.134c0 25.989-21.145 47.133-47.134 47.133h-10.87c-3.531 11.05-7.986 21.784-13.323 32.097l7.704 7.704c18.666 18.646 18.151 48.528-.006 66.665l-22.713 22.712c-18.159 18.184-48.041 18.638-66.664-.006l-7.697-7.697c-10.313 5.336-21.048 9.792-32.097 13.323v10.871c0 25.987-21.144 47.131-47.134 47.131zm-106.349-102.83c14.327 8.473 29.747 14.874 45.831 19.025 6.624 1.709 11.252 7.683 11.252 14.524v22.148c0 9.447 7.687 17.133 17.134 17.133h32.133c9.447 0 17.134-7.686 17.134-17.133v-22.148c0-6.841 4.628-12.815 11.252-14.524 16.084-4.151 31.504-10.552 45.831-19.025 5.895-3.486 13.4-2.538 18.243 2.305l15.688 15.689c6.764 6.772 17.626 6.615 24.224.007l22.727-22.726c6.582-6.574 6.802-17.438.006-24.225l-15.695-15.695c-4.842-4.842-5.79-12.348-2.305-18.242 8.473-14.326 14.873-29.746 19.024-45.831 1.71-6.624 7.684-11.251 14.524-11.251h22.147c9.447 0 17.134-7.686 17.134-17.133v-32.134c0-9.447-7.687-17.133-17.134-17.133h-22.147c-6.841 0-12.814-4.628-14.524-11.251-4.151-16.085-10.552-31.505-19.024-45.831-3.485-5.894-2.537-13.4 2.305-18.242l15.689-15.689c6.782-6.774 6.605-17.634.006-24.225l-22.725-22.725c-6.587-6.596-17.451-6.789-24.225-.006l-15.694 15.695c-4.842 4.843-12.35 5.791-18.243 2.305-14.327-8.473-29.747-14.874-45.831-19.025-6.624-1.709-11.252-7.683-11.252-14.524v-22.15c0-9.447-7.687-17.133-17.134-17.133h-32.133c-9.447 0-17.134 7.686-17.134 17.133v22.148c0 6.841-4.628 12.815-11.252 14.524-16.084 4.151-31.504 10.552-45.831 19.025-5.896 3.485-13.401 2.537-18.243-2.305l-15.688-15.689c-6.764-6.772-17.627-6.615-24.224-.007l-22.727 22.726c-6.582 6.574-6.802 17.437-.006 24.225l15.695 15.695c4.842 4.842 5.79 12.348 2.305 18.242-8.473 14.326-14.873 29.746-19.024 45.831-1.71 6.624-7.684 11.251-14.524 11.251h-22.148c-9.447.001-17.134 7.687-17.134 17.134v32.134c0 9.447 7.687 17.133 17.134 17.133h22.147c6.841 0 12.814 4.628 14.524 11.251 4.151 16.085 10.552 31.505 19.024 45.831 3.485 5.894 2.537 13.4-2.305 18.242l-15.689 15.689c-6.782 6.774-6.605 17.634-.006 24.225l22.725 22.725c6.587 6.596 17.451 6.789 24.225.006l15.694-15.695c3.568-3.567 10.991-6.594 18.244-2.304z"/><path d="m256 367.4c-61.427 0-111.4-49.974-111.4-111.4s49.973-111.4 111.4-111.4 111.4 49.974 111.4 111.4-49.973 111.4-111.4 111.4zm0-192.8c-44.885 0-81.4 36.516-81.4 81.4s36.516 81.4 81.4 81.4 81.4-36.516 81.4-81.4-36.515-81.4-81.4-81.4z"/></symbol><symbol id="theme" viewBox="0 0 512.001 512.001"><title>theme</title><path d="m153.616 485.616c17.015-17.015 26.386-39.607 26.385-63.615 0-17.983 29.222-54.182 59.105-66.561 8.643-3.579 20.426-6.366 27.48.688 7.406 7.404 8.171 8.171 8.197 8.196.028.029.057.059.086.087 11.298 11.298 26.365 17.52 42.428 17.52 16.06-.001 31.128-6.224 42.426-17.522l147.885-147.885c2.814-2.813 4.394-6.628 4.394-10.606s-1.58-7.794-4.394-10.606l-190.918-190.918c-5.858-5.858-15.355-5.858-21.213 0l-147.886 147.885c-11.298 11.298-17.521 26.365-17.521 42.428 0 16.061 6.222 31.128 17.535 42.442.042.042.632.63 8.27 8.267 2.996 2.997 4.393 6.674 4.393 11.572 0 29.428-46.683 75.013-70.267 75.013-49.624 0-89.999 40.373-90.001 89.999v.002c.001 24.009 9.372 46.601 26.387 63.613 17.015 17.016 39.607 26.386 63.614 26.386s46.601-9.371 63.615-26.385zm152.467-449.402 169.705 169.705-63.64 63.641-169.705-169.708zm-258.483 428.187c-11.349-11.347-17.599-26.405-17.6-42.399.002-33.085 26.918-60.001 60.001-60.001 19.504 0 44.011-13.273 65.558-35.508 10.436-10.769 34.709-39.099 34.709-69.505 0-12.826-4.558-24.163-13.181-32.786-7.593-7.592-8.254-8.252-8.284-8.282-5.631-5.632-8.732-13.165-8.732-21.213 0-8.049 3.102-15.583 8.733-21.215l52.427-52.427 169.705 169.707-52.426 52.425c-5.632 5.632-13.166 8.733-21.215 8.734-8.048 0-15.581-3.102-21.213-8.733-.311-.313-1.744-1.747-8.283-8.285-14.643-14.644-36.013-17.197-60.173-7.189-35.898 14.869-77.625 59.29-77.625 94.276 0 15.995-6.249 31.053-17.598 42.401-11.349 11.349-26.407 17.599-42.402 17.599-15.994.001-31.053-6.249-42.401-17.599z"/><circle cx="90" cy="422.001" r="15"/></symbol><symbol id="padlock" viewBox="0 0 24 24"><title>padlock</title><path d="m18.75 24h-13.5c-1.24 0-2.25-1.009-2.25-2.25v-10.5c0-1.241 1.01-2.25 2.25-2.25h13.5c1.24 0 2.25 1.009 2.25 2.25v10.5c0 1.241-1.01 2.25-2.25 2.25zm-13.5-13.5c-.413 0-.75.336-.75.75v10.5c0 .414.337.75.75.75h13.5c.413 0 .75-.336.75-.75v-10.5c0-.414-.337-.75-.75-.75z"/><path d="m17.25 10.5c-.414 0-.75-.336-.75-.75v-3.75c0-2.481-2.019-4.5-4.5-4.5s-4.5 2.019-4.5 4.5v3.75c0 .414-.336.75-.75.75s-.75-.336-.75-.75v-3.75c0-3.309 2.691-6 6-6s6 2.691 6 6v3.75c0 .414-.336.75-.75.75z"/><path d="m12 17c-1.103 0-2-.897-2-2s.897-2 2-2 2 .897 2 2-.897 2-2 2zm0-2.5c-.275 0-.5.224-.5.5s.225.5.5.5.5-.224.5-.5-.225-.5-.5-.5z"/><path d="m12 20c-.414 0-.75-.336-.75-.75v-2.75c0-.414.336-.75.75-.75s.75.336.75.75v2.75c0 .414-.336.75-.75.75z"/></symbol><symbol id="profile-user" viewBox="0 0 45.532 45.532"><title>profile-user</title><path d="M22.766,0.001C10.194,0.001,0,10.193,0,22.766s10.193,22.765,22.766,22.765c12.574,0,22.766-10.192,22.766-22.765 S35.34,0.001,22.766,0.001z M22.766,6.808c4.16,0,7.531,3.372,7.531,7.53c0,4.159-3.371,7.53-7.531,7.53 c-4.158,0-7.529-3.371-7.529-7.53C15.237,10.18,18.608,6.808,22.766,6.808z M22.761,39.579c-4.149,0-7.949-1.511-10.88-4.012 c-0.714-0.609-1.126-1.502-1.126-2.439c0-4.217,3.413-7.592,7.631-7.592h8.762c4.219,0,7.619,3.375,7.619,7.592 c0,0.938-0.41,1.829-1.125,2.438C30.712,38.068,26.911,39.579,22.761,39.579z"/></symbol><symbol id="list" viewBox="0 0 60.123 60.123"><title>list</title><path d="M57.124,51.893H16.92c-1.657,0-3-1.343-3-3s1.343-3,3-3h40.203c1.657,0,3,1.343,3,3S58.781,51.893,57.124,51.893z"/><path d="M57.124,33.062H16.92c-1.657,0-3-1.343-3-3s1.343-3,3-3h40.203c1.657,0,3,1.343,3,3 C60.124,31.719,58.781,33.062,57.124,33.062z"/><path d="M57.124,14.231H16.92c-1.657,0-3-1.343-3-3s1.343-3,3-3h40.203c1.657,0,3,1.343,3,3S58.781,14.231,57.124,14.231z"/><circle cx="4.029" cy="11.463" r="4.029"/><circle cx="4.029" cy="30.062" r="4.029"/><circle cx="4.029" cy="48.661" r="4.029"/></symbol><symbol id="dollar" viewBox="0 0 512 512"><title>dollar</title><path d="m256 512c-68.38 0-132.668-26.628-181.02-74.98s-74.98-112.64-74.98-181.02 26.629-132.667 74.98-181.02 112.64-74.98 181.02-74.98 132.668 26.628 181.02 74.98 74.98 112.64 74.98 181.02-26.629 132.667-74.98 181.02-112.64 74.98-181.02 74.98zm0-480c-123.514 0-224 100.486-224 224s100.486 224 224 224 224-100.486 224-224-100.486-224-224-224z"/><path d="m256 240c-22.056 0-40-17.944-40-40s17.944-40 40-40 40 17.944 40 40c0 8.836 7.163 16 16 16s16-7.164 16-16c0-34.201-23.978-62.888-56-70.186v-17.814c0-8.836-7.163-16-16-16s-16 7.164-16 16v17.814c-32.022 7.298-56 35.985-56 70.186 0 39.701 32.299 72 72 72 22.056 0 40 17.944 40 40s-17.944 40-40 40-40-17.944-40-40c0-8.836-7.163-16-16-16s-16 7.164-16 16c0 34.201 23.978 62.888 56 70.186v17.814c0 8.836 7.163 16 16 16s16-7.164 16-16v-17.814c32.022-7.298 56-35.985 56-70.186 0-39.701-32.299-72-72-72z"/></symbol><symbol id="check-mark" viewBox="0 0 512 512"><title>check-mark</title><path d="m369.164062 174.769531c7.8125 7.8125 7.8125 20.476563 0 28.285157l-134.171874 134.175781c-7.8125 7.808593-20.472657 7.808593-28.285157 0l-63.871093-63.875c-7.8125-7.808594-7.8125-20.472657 0-28.28125 7.808593-7.8125 20.472656-7.8125 28.28125 0l49.730468 49.730469 120.03125-120.035157c7.8125-7.808593 20.476563-7.808593 28.285156 0zm142.835938 81.230469c0 141.503906-114.515625 256-256 256-141.503906 0-256-114.515625-256-256 0-141.503906 114.515625-256 256-256 141.503906 0 256 114.515625 256 256zm-40 0c0-119.394531-96.621094-216-216-216-119.394531 0-216 96.621094-216 216 0 119.394531 96.621094 216 216 216 119.394531 0 216-96.621094 216-216zm0 0"/></symbol><symbol id="error" viewBox="0 0 512 512"><title>error</title><g> <g> <path d="M256,0C114.508,0,0,114.497,0,256c0,141.493,114.497,256,256,256c141.492,0,256-114.497,256-256 C512,114.507,397.503,0,256,0z M256,472c-119.384,0-216-96.607-216-216c0-119.385,96.607-216,216-216 c119.384,0,216,96.607,216,216C472,375.385,375.393,472,256,472z"/> </g> </g><g> <g> <path d="M343.586,315.302L284.284,256l59.302-59.302c7.81-7.81,7.811-20.473,0.001-28.284c-7.812-7.811-20.475-7.81-28.284,0 L256,227.716l-59.303-59.302c-7.809-7.811-20.474-7.811-28.284,0c-7.81,7.811-7.81,20.474,0.001,28.284L227.716,256 l-59.302,59.302c-7.811,7.811-7.812,20.474-0.001,28.284c7.813,7.812,20.476,7.809,28.284,0L256,284.284l59.303,59.302 c7.808,7.81,20.473,7.811,28.284,0C351.398,335.775,351.397,323.112,343.586,315.302z"/> </g> </g></symbol><symbol id="dashboard" viewBox="0 0 512 512"><title>dashboard</title><path d="m197.332031 170.667969h-160c-20.585937 0-37.332031-16.746094-37.332031-37.335938v-96c0-20.585937 16.746094-37.332031 37.332031-37.332031h160c20.589844 0 37.335938 16.746094 37.335938 37.332031v96c0 20.589844-16.746094 37.335938-37.335938 37.335938zm-160-138.667969c-2.941406 0-5.332031 2.390625-5.332031 5.332031v96c0 2.945313 2.390625 5.335938 5.332031 5.335938h160c2.945313 0 5.335938-2.390625 5.335938-5.335938v-96c0-2.941406-2.390625-5.332031-5.335938-5.332031zm0 0"/><path d="m197.332031 512h-160c-20.585937 0-37.332031-16.746094-37.332031-37.332031v-224c0-20.589844 16.746094-37.335938 37.332031-37.335938h160c20.589844 0 37.335938 16.746094 37.335938 37.335938v224c0 20.585937-16.746094 37.332031-37.335938 37.332031zm-160-266.667969c-2.941406 0-5.332031 2.390625-5.332031 5.335938v224c0 2.941406 2.390625 5.332031 5.332031 5.332031h160c2.945313 0 5.335938-2.390625 5.335938-5.332031v-224c0-2.945313-2.390625-5.335938-5.335938-5.335938zm0 0"/><path d="m474.667969 512h-160c-20.589844 0-37.335938-16.746094-37.335938-37.332031v-96c0-20.589844 16.746094-37.335938 37.335938-37.335938h160c20.585937 0 37.332031 16.746094 37.332031 37.335938v96c0 20.585937-16.746094 37.332031-37.332031 37.332031zm-160-138.667969c-2.945313 0-5.335938 2.390625-5.335938 5.335938v96c0 2.941406 2.390625 5.332031 5.335938 5.332031h160c2.941406 0 5.332031-2.390625 5.332031-5.332031v-96c0-2.945313-2.390625-5.335938-5.332031-5.335938zm0 0"/><path d="m474.667969 298.667969h-160c-20.589844 0-37.335938-16.746094-37.335938-37.335938v-224c0-20.585937 16.746094-37.332031 37.335938-37.332031h160c20.585937 0 37.332031 16.746094 37.332031 37.332031v224c0 20.589844-16.746094 37.335938-37.332031 37.335938zm-160-266.667969c-2.945313 0-5.335938 2.390625-5.335938 5.332031v224c0 2.945313 2.390625 5.335938 5.335938 5.335938h160c2.941406 0 5.332031-2.390625 5.332031-5.335938v-224c0-2.941406-2.390625-5.332031-5.332031-5.332031zm0 0"/></symbol><symbol id="cancel" viewBox="0 0 512.001 512.001"><title>cancel</title><path d="M294.111,256.001L504.109,46.003c10.523-10.524,10.523-27.586,0-38.109c-10.524-10.524-27.587-10.524-38.11,0L256,217.892 L46.002,7.894c-10.524-10.524-27.586-10.524-38.109,0s-10.524,27.586,0,38.109l209.998,209.998L7.893,465.999 c-10.524,10.524-10.524,27.586,0,38.109c10.524,10.524,27.586,10.523,38.109,0L256,294.11l209.997,209.998 c10.524,10.524,27.587,10.523,38.11,0c10.523-10.524,10.523-27.586,0-38.109L294.111,256.001z"/></symbol><symbol id="discount" viewBox="0 0 512.003 512.003"><title>discount</title><g> <g> <path d="M477.958,262.633c-2.06-4.215-2.06-9.049,0-13.263l19.096-39.065c10.632-21.751,2.208-47.676-19.178-59.023l-38.41-20.38 c-4.144-2.198-6.985-6.11-7.796-10.729l-7.512-42.829c-4.183-23.846-26.241-39.87-50.208-36.479l-43.053,6.09 c-4.647,0.656-9.242-0.838-12.613-4.099l-31.251-30.232c-17.401-16.834-44.661-16.835-62.061,0L193.72,42.859 c-3.372,3.262-7.967,4.753-12.613,4.099l-43.053-6.09c-23.975-3.393-46.025,12.633-50.208,36.479l-7.512,42.827 c-0.811,4.62-3.652,8.531-7.795,10.73l-38.41,20.38c-21.386,11.346-29.81,37.273-19.178,59.024l19.095,39.064 c2.06,4.215,2.06,9.049,0,13.263l-19.096,39.064c-10.632,21.751-2.208,47.676,19.178,59.023l38.41,20.38 c4.144,2.198,6.985,6.11,7.796,10.729l7.512,42.829c3.808,21.708,22.422,36.932,43.815,36.93c2.107,0,4.245-0.148,6.394-0.452 l43.053-6.09c4.643-0.659,9.241,0.838,12.613,4.099l31.251,30.232c8.702,8.418,19.864,12.626,31.03,12.625 c11.163-0.001,22.332-4.209,31.03-12.625l31.252-30.232c3.372-3.261,7.968-4.751,12.613-4.099l43.053,6.09 c23.978,3.392,46.025-12.633,50.208-36.479l7.513-42.827c0.811-4.62,3.652-8.531,7.795-10.73l38.41-20.38 c21.386-11.346,29.81-37.273,19.178-59.024L477.958,262.633z M464.035,334.635l-38.41,20.38 c-12.246,6.499-20.645,18.057-23.04,31.713l-7.512,42.828c-1.415,8.068-8.874,13.487-16.987,12.342l-43.053-6.09 c-13.73-1.945-27.316,2.474-37.281,12.113L266.5,478.152c-5.886,5.694-15.109,5.694-20.997,0l-31.251-30.232 c-8.422-8.147-19.432-12.562-30.926-12.562c-2.106,0-4.229,0.148-6.355,0.449l-43.053,6.09 c-8.106,1.146-15.571-4.274-16.987-12.342l-7.513-42.829c-2.396-13.656-10.794-25.215-23.041-31.712l-38.41-20.38 c-7.236-3.839-10.086-12.61-6.489-19.969l19.096-39.065c6.088-12.456,6.088-26.742,0-39.198l-19.096-39.065 c-3.597-7.359-0.747-16.13,6.489-19.969l38.41-20.38c12.246-6.499,20.645-18.057,23.04-31.713l7.512-42.828 c1.416-8.068,8.874-13.488,16.987-12.342l43.053,6.09c13.725,1.943,27.316-2.474,37.281-12.113l31.252-30.232 c5.886-5.694,15.109-5.694,20.997,0l31.251,30.232c9.965,9.64,23.554,14.056,37.281,12.113l43.053-6.09 c8.107-1.147,15.572,4.274,16.987,12.342l7.512,42.829c2.396,13.656,10.794,25.215,23.041,31.712l38.41,20.38 c7.236,3.839,10.086,12.61,6.489,19.969l-19.096,39.064c-6.088,12.455-6.088,26.743,0,39.198l19.096,39.064 C474.121,322.024,471.271,330.796,464.035,334.635z"/> </g> </g><g> <g> <path d="M363.886,148.116c-5.765-5.766-15.115-5.766-20.881,0L148.116,343.006c-5.766,5.766-5.766,15.115,0,20.881 c2.883,2.883,6.662,4.325,10.44,4.325c3.778,0,7.558-1.441,10.44-4.325l194.889-194.889 C369.653,163.231,369.653,153.883,363.886,148.116z"/> </g> </g><g> <g> <path d="M196.941,123.116c-29.852,0-54.139,24.287-54.139,54.139s24.287,54.139,54.139,54.139s54.139-24.287,54.139-54.139 S226.793,123.116,196.941,123.116z M196.941,201.863c-13.569,0-24.608-11.039-24.608-24.609c0-13.569,11.039-24.608,24.608-24.608 c13.569,0,24.609,11.039,24.609,24.608C221.549,190.824,210.51,201.863,196.941,201.863z"/> </g> </g><g> <g> <path d="M315.061,280.61c-29.852,0-54.139,24.287-54.139,54.139s24.287,54.139,54.139,54.139 c29.852,0,54.139-24.287,54.139-54.139S344.913,280.61,315.061,280.61z M315.061,359.357c-13.569,0-24.609-11.039-24.609-24.608 s11.039-24.608,24.609-24.608c13.569,0,24.608,11.039,24.608,24.608S328.63,359.357,315.061,359.357z"/> </g> </g></symbol><symbol id="price-tag" viewBox="0 0 512 512"><title>price-tag</title><g> <g> <path d="M458.667,0H323.349c-25.643,0-49.749,9.984-67.883,28.117L18.197,265.387C6.464,277.12,0,292.715,0,309.376 c0,16.576,6.464,32.171,18.197,43.904L158.72,493.803C170.453,505.536,186.048,512,202.709,512 c16.576,0,32.171-6.464,43.904-18.197l237.269-237.269C502.016,238.4,512,214.293,512,188.651V53.333 C512,23.936,488.064,0,458.667,0z M490.667,188.651c0,19.947-7.765,38.699-21.845,52.779L231.531,478.72 c-15.339,15.339-42.24,15.445-57.707,0L33.28,338.176c-7.701-7.68-11.947-17.92-11.947-28.885c0-10.88,4.245-21.12,11.947-28.821 L270.549,43.2c14.123-14.101,32.853-21.867,52.8-21.867h135.317c17.643,0,32,14.357,32,32V188.651z"/> </g> </g><g> <g> <path d="M394.667,64c-29.397,0-53.333,23.936-53.333,53.333c0,29.397,23.936,53.333,53.333,53.333S448,146.731,448,117.333 C448,87.936,424.064,64,394.667,64z M394.667,149.333c-17.643,0-32-14.357-32-32c0-17.643,14.357-32,32-32s32,14.357,32,32 C426.667,134.976,412.309,149.333,394.667,149.333z"/> </g> </g></symbol><symbol id="add" viewBox="0 0 477.867 477.867"><title>add</title><g> <g> <path d="M392.533,0h-307.2C38.228,0.056,0.056,38.228,0,85.333v307.2c0.056,47.105,38.228,85.277,85.333,85.333h307.2 c47.105-0.056,85.277-38.228,85.333-85.333v-307.2C477.81,38.228,439.638,0.056,392.533,0z M443.733,392.533 c0,28.277-22.923,51.2-51.2,51.2h-307.2c-28.277,0-51.2-22.923-51.2-51.2v-307.2c0-28.277,22.923-51.2,51.2-51.2h307.2 c28.277,0,51.2,22.923,51.2,51.2V392.533z"/> </g> </g><g> <g> <path d="M324.267,221.867H256V153.6c0-9.426-7.641-17.067-17.067-17.067s-17.067,7.641-17.067,17.067v68.267H153.6 c-9.426,0-17.067,7.641-17.067,17.067S144.174,256,153.6,256h68.267v68.267c0,9.426,7.641,17.067,17.067,17.067 S256,333.692,256,324.267V256h68.267c9.426,0,17.067-7.641,17.067-17.067S333.692,221.867,324.267,221.867z"/> </g> </g></symbol>
    <symbol id="search" viewBox="0 0 56.966 56.966"><title>search</title><path d="M55.146,51.887L41.588,37.786c3.486-4.144,5.396-9.358,5.396-14.786c0-12.682-10.318-23-23-23s-23,10.318-23,23 s10.318,23,23,23c4.761,0,9.298-1.436,13.177-4.162l13.661,14.208c0.571,0.593,1.339,0.92,2.162,0.92 c0.779,0,1.518-0.297,2.079-0.837C56.255,54.982,56.293,53.08,55.146,51.887z M23.984,6c9.374,0,17,7.626,17,17s-7.626,17-17,17 s-17-7.626-17-17S14.61,6,23.984,6z"/></symbol>
    <symbol id="edit" viewBox="0 0 386.615 386.615"><title>edit</title><path d="M36.573,309.292h2.09l100.833-21.943c1.964-0.327,3.784-1.237,5.224-2.612L315.56,113.896 c12.48-12.453,19.443-29.391,19.331-47.02c0.023-17.766-6.917-34.833-19.331-47.543C303.108,6.853,286.17-0.11,268.54,0.003 c-17.742-0.157-34.76,7.028-47.02,19.853L51.201,190.696c-1.502,1.209-2.597,2.85-3.135,4.702L26.124,296.231 c-0.599,3.62,0.565,7.308,3.135,9.927C31.188,308.126,33.817,309.253,36.573,309.292z M268.54,20.901 c25.103-0.002,45.454,20.347,45.456,45.45c0,0.175-0.001,0.35-0.003,0.525c0.171,11.959-4.547,23.47-13.061,31.869 l-64.261-64.784C245.137,25.548,256.604,20.848,268.54,20.901z M222.042,49.113l64.261,64.261L137.405,261.749l-64.261-63.739 L222.042,49.113z M64.785,218.909l51.722,51.722L50.156,285.26L64.785,218.909z"/><path d="M368.328,365.717H18.287c-5.771,0-10.449,4.678-10.449,10.449s4.678,10.449,10.449,10.449h350.041 c5.771,0,10.449-4.678,10.449-10.449S374.099,365.717,368.328,365.717z"/></symbol>
<symbol id="menu" viewBox="0 0 512 512"><title>menu</title><g> <g> <path d="M176.792,0H59.208C26.561,0,0,26.561,0,59.208v117.584C0,209.439,26.561,236,59.208,236h117.584 C209.439,236,236,209.439,236,176.792V59.208C236,26.561,209.439,0,176.792,0z M196,176.792c0,10.591-8.617,19.208-19.208,19.208 H59.208C48.617,196,40,187.383,40,176.792V59.208C40,48.617,48.617,40,59.208,40h117.584C187.383,40,196,48.617,196,59.208 V176.792z"/> </g> </g><g> <g> <path d="M452,0H336c-33.084,0-60,26.916-60,60v116c0,33.084,26.916,60,60,60h116c33.084,0,60-26.916,60-60V60 C512,26.916,485.084,0,452,0z M472,176c0,11.028-8.972,20-20,20H336c-11.028,0-20-8.972-20-20V60c0-11.028,8.972-20,20-20h116 c11.028,0,20,8.972,20,20V176z"/> </g> </g><g> <g> <path d="M176.792,276H59.208C26.561,276,0,302.561,0,335.208v117.584C0,485.439,26.561,512,59.208,512h117.584 C209.439,512,236,485.439,236,452.792V335.208C236,302.561,209.439,276,176.792,276z M196,452.792 c0,10.591-8.617,19.208-19.208,19.208H59.208C48.617,472,40,463.383,40,452.792V335.208C40,324.617,48.617,316,59.208,316h117.584 c10.591,0,19.208,8.617,19.208,19.208V452.792z"/> </g> </g><g> <g> <path d="M452,276H336c-33.084,0-60,26.916-60,60v116c0,33.084,26.916,60,60,60h116c33.084,0,60-26.916,60-60V336 C512,302.916,485.084,276,452,276z M472,452c0,11.028-8.972,20-20,20H336c-11.028,0-20-8.972-20-20V336c0-11.028,8.972-20,20-20 h116c11.028,0,20,8.972,20,20V452z"/> </g> </g></symbol>
<symbol id="delete" viewBox="-57 0 512 512"><title>delete</title><path d="m156.371094 30.90625h85.570312v14.398438h30.902344v-16.414063c.003906-15.929687-12.949219-28.890625-28.871094-28.890625h-89.632812c-15.921875 0-28.875 12.960938-28.875 28.890625v16.414063h30.90625zm0 0"/><path d="m344.210938 167.75h-290.109376c-7.949218 0-14.207031 6.78125-13.566406 14.707031l24.253906 299.90625c1.351563 16.742188 15.316407 29.636719 32.09375 29.636719h204.542969c16.777344 0 30.742188-12.894531 32.09375-29.640625l24.253907-299.902344c.644531-7.925781-5.613282-14.707031-13.5625-14.707031zm-219.863282 312.261719c-.324218.019531-.648437.03125-.96875.03125-8.101562 0-14.902344-6.308594-15.40625-14.503907l-15.199218-246.207031c-.523438-8.519531 5.957031-15.851562 14.472656-16.375 8.488281-.515625 15.851562 5.949219 16.375 14.472657l15.195312 246.207031c.527344 8.519531-5.953125 15.847656-14.46875 16.375zm90.433594-15.421875c0 8.53125-6.917969 15.449218-15.453125 15.449218s-15.453125-6.917968-15.453125-15.449218v-246.210938c0-8.535156 6.917969-15.453125 15.453125-15.453125 8.53125 0 15.453125 6.917969 15.453125 15.453125zm90.757812-245.300782-14.511718 246.207032c-.480469 8.210937-7.292969 14.542968-15.410156 14.542968-.304688 0-.613282-.007812-.921876-.023437-8.519531-.503906-15.019531-7.816406-14.515624-16.335937l14.507812-246.210938c.5-8.519531 7.789062-15.019531 16.332031-14.515625 8.519531.5 15.019531 7.816406 14.519531 16.335937zm0 0"/><path d="m397.648438 120.0625-10.148438-30.421875c-2.675781-8.019531-10.183594-13.429687-18.640625-13.429687h-339.410156c-8.453125 0-15.964844 5.410156-18.636719 13.429687l-10.148438 30.421875c-1.957031 5.867188.589844 11.851562 5.34375 14.835938 1.9375 1.214843 4.230469 1.945312 6.75 1.945312h372.796876c2.519531 0 4.816406-.730469 6.75-1.949219 4.753906-2.984375 7.300781-8.96875 5.34375-14.832031zm0 0"/></symbol>
<symbol id="add_uploader" viewBox="0 0 448 448"><title>add</title><path d="m408 184h-136c-4.417969 0-8-3.582031-8-8v-136c0-22.089844-17.910156-40-40-40s-40 17.910156-40 40v136c0 4.417969-3.582031 8-8 8h-136c-22.089844 0-40 17.910156-40 40s17.910156 40 40 40h136c4.417969 0 8 3.582031 8 8v136c0 22.089844 17.910156 40 40 40s40-17.910156 40-40v-136c0-4.417969 3.582031-8 8-8h136c22.089844 0 40-17.910156 40-40s-17.910156-40-40-40zm0 0"/></symbol>
</svg>