<svg id="Capa_1" enable-background="new 0 0 512.001 512.001" height="512" viewBox="0 0 512.001 512.001" width="512" xmlns="http://www.w3.org/2000/svg"><g><path d="m153.616 485.616c17.015-17.015 26.386-39.607 26.385-63.615 0-17.983 29.222-54.182 59.105-66.561 8.643-3.579 20.426-6.366 27.48.688 7.406 7.404 8.171 8.171 8.197 8.196.028.029.057.059.086.087 11.298 11.298 26.365 17.52 42.428 17.52 16.06-.001 31.128-6.224 42.426-17.522l147.885-147.885c2.814-2.813 4.394-6.628 4.394-10.606s-1.58-7.794-4.394-10.606l-190.918-190.918c-5.858-5.858-15.355-5.858-21.213 0l-147.886 147.885c-11.298 11.298-17.521 26.365-17.521 42.428 0 16.061 6.222 31.128 17.535 42.442.042.042.632.63 8.27 8.267 2.996 2.997 4.393 6.674 4.393 11.572 0 29.428-46.683 75.013-70.267 75.013-49.624 0-89.999 40.373-90.001 89.999v.002c.001 24.009 9.372 46.601 26.387 63.613 17.015 17.016 39.607 26.386 63.614 26.386s46.601-9.371 63.615-26.385zm152.467-449.402 169.705 169.705-63.64 63.641-169.705-169.708zm-258.483 428.187c-11.349-11.347-17.599-26.405-17.6-42.399.002-33.085 26.918-60.001 60.001-60.001 19.504 0 44.011-13.273 65.558-35.508 10.436-10.769 34.709-39.099 34.709-69.505 0-12.826-4.558-24.163-13.181-32.786-7.593-7.592-8.254-8.252-8.284-8.282-5.631-5.632-8.732-13.165-8.732-21.213 0-8.049 3.102-15.583 8.733-21.215l52.427-52.427 169.705 169.707-52.426 52.425c-5.632 5.632-13.166 8.733-21.215 8.734-8.048 0-15.581-3.102-21.213-8.733-.311-.313-1.744-1.747-8.283-8.285-14.643-14.644-36.013-17.197-60.173-7.189-35.898 14.869-77.625 59.29-77.625 94.276 0 15.995-6.249 31.053-17.598 42.401-11.349 11.349-26.407 17.599-42.402 17.599-15.994.001-31.053-6.249-42.401-17.599z"/><circle cx="90" cy="422.001" r="15"/></g></svg>