<svg xmlns="http://www.w3.org/2000/svg" width="754.257" height="597.113" viewBox="0 0 754.257 597.113"><g transform="translate(-47)"><rect width="754.257" height="0.401" transform="translate(47 524.743)" fill="#ebebeb"/><rect width="40.8" height="0.401" transform="translate(465.066 535.657)" fill="#ebebeb"/><rect width="96.68" height="0.401" transform="translate(633.17 544.326)" fill="#ebebeb"/><rect width="99.885" height="0.401" transform="translate(356.495 535.849)" fill="#ebebeb"/><rect width="20.897" height="0.401" transform="translate(270.825 547.836)" fill="#ebebeb"/><rect width="95.157" height="0.401" transform="translate(312.026 547.836)" fill="#ebebeb"/><rect width="61.617" height="0.401" transform="translate(84.068 541.073)" fill="#ebebeb"/><path d="M356.774,453.271H47.344a9.15,9.15,0,0,1-9.134-9.15V9.15A9.15,9.15,0,0,1,47.344,0h309.43a9.15,9.15,0,0,1,9.15,9.15V444.121A9.15,9.15,0,0,1,356.774,453.271ZM47.344.4a8.75,8.75,0,0,0-8.734,8.75V444.121a8.75,8.75,0,0,0,8.734,8.75h309.43a8.766,8.766,0,0,0,8.75-8.75V9.15A8.766,8.766,0,0,0,356.774.4Z" transform="translate(23.022)" fill="#ebebeb"/><path d="M573.1,453.271H263.65a9.166,9.166,0,0,1-9.15-9.15V9.15A9.166,9.166,0,0,1,263.65,0H573.1a9.15,9.15,0,0,1,9.118,9.15V444.121a9.15,9.15,0,0,1-9.118,9.15ZM263.65.4a8.766,8.766,0,0,0-8.75,8.75V444.121a8.766,8.766,0,0,0,8.75,8.75H573.1a8.766,8.766,0,0,0,8.75-8.75V9.15A8.766,8.766,0,0,0,573.1.4Z" transform="translate(153.34)" fill="#ebebeb"/><path d="M238.4,268.727H131.988L125.53,194.21H231.937Z" transform="translate(75.634 117.014)" fill="#e6e6e6"/><path d="M241.835,268.727H135.428L128.97,194.21H235.377Z" transform="translate(77.706 117.014)" fill="#f0f0f0"/><path d="M143.418,246.715,139.86,204.2h74.4l3.558,42.515Z" transform="translate(84.268 123.034)" fill="#fff"/><rect width="12.484" height="138.986" transform="translate(325.471 385.741)" fill="#e6e6e6"/><rect width="8.67" height="138.986" transform="translate(333.227 385.741)" fill="#f0f0f0"/><rect width="120.846" height="15.336" transform="translate(341.897 401.093) rotate(180)" fill="#f0f0f0"/><rect width="12.484" height="123.65" transform="translate(212.83 401.093)" fill="#e6e6e6"/><rect width="8.67" height="123.65" transform="translate(220.586 401.093)" fill="#f0f0f0"/><rect width="12.484" height="123.65" transform="translate(123.971 401.093)" fill="#e6e6e6"/><rect width="8.67" height="123.65" transform="translate(131.727 401.093)" fill="#f0f0f0"/><rect width="12.484" height="123.65" transform="translate(246.467 401.093)" fill="#e6e6e6"/><rect width="8.67" height="123.65" transform="translate(254.207 401.093)" fill="#f0f0f0"/><rect width="97.08" height="15.336" transform="translate(123.971 385.741)" fill="#e6e6e6"/><rect width="375.517" height="209.064" transform="translate(207.542 39.198)" fill="#e0e0e0"/><rect width="394.251" height="209.064" transform="translate(209.433 39.198)" fill="#f5f5f5"/><rect width="196.18" height="381.366" transform="translate(597.241 45.64) rotate(90)" fill="#fff"/><path d="M275.746,224.66l72-196.18H228.921l-72,196.18Z" transform="translate(94.547 17.16)" fill="#f5f5f5"/><path d="M336.145,224.66l72-196.18H318.5l-72,196.18Z" transform="translate(148.52 17.16)" fill="#f5f5f5"/><rect width="31.922" height="199.673" transform="translate(670.156 325.07)" fill="#e6e6e6"/><path d="M436.178,333.234h8.4V317.85H427.38Z" transform="translate(257.503 191.509)" fill="#fafafa"/><rect width="31.922" height="199.673" transform="translate(375.838 325.07)" fill="#e6e6e6"/><rect width="301.641" height="195.523" transform="translate(400.436 325.07)" fill="#fafafa"/><path d="M543.665,262.983H253.45V207.76H543.665Zm-288.613-1.6h287.01V209.363H255.053Z" transform="translate(152.707 125.178)" fill="#e6e6e6"/><path d="M479.894,231.973H297.48c-8.461,0-16.618-6.843-22.435-18.749l-.545-1.154H502.858l-.545,1.154C496.448,225.13,488.436,231.973,479.894,231.973Zm-202.766-18.3c5.416,10.625,12.82,16.7,20.352,16.7H479.894c7.564,0,14.935-6.074,20.352-16.7Z" transform="translate(165.39 127.775)" fill="#e6e6e6"/><path d="M258.277,333.234h-8.4V317.85h17.195Z" transform="translate(150.556 191.509)" fill="#fafafa"/><path d="M543.665,301.843H253.45V246.62H543.665Zm-288.613-1.6h287.01V248.223H255.053Z" transform="translate(152.707 148.592)" fill="#e6e6e6"/><path d="M479.894,270.827H297.48c-8.461,0-16.618-6.827-22.435-18.733l-.545-1.154H502.858l-.545,1.154C496.448,264,488.436,270.827,479.894,270.827ZM277.128,252.542c5.416,10.625,12.82,16.682,20.352,16.682H479.894c7.564,0,14.935-6.057,20.352-16.682Z" transform="translate(165.39 151.195)" fill="#e6e6e6"/><path d="M543.665,340.793H253.45v-55.3H543.665Zm-288.613-1.6h287.01v-52.1H255.053Z" transform="translate(152.707 172.012)" fill="#e6e6e6"/><path d="M479.894,309.7H297.48c-8.461,0-16.618-6.827-22.435-18.749l-.545-1.138H502.858l-.545,1.138C496.448,302.935,488.436,309.7,479.894,309.7ZM277.128,291.413c5.416,10.625,12.82,16.682,20.352,16.682H479.894c7.564,0,14.935-6.057,20.352-16.682Z" transform="translate(165.39 174.615)" fill="#e6e6e6"/><path d="M135.73,219.33v3.878h-2.468l-2.051,30.384H101.019l-2.035-30.384H96.5V219.33Z" transform="translate(58.143 132.15)" fill="#e6e6e6"/><path d="M151.2,185.425c-2.468-18.044-26.89-23.285-57.915-23.942-29.5-.625-38.957-11.073-38.957-11.073s.1,42.274,42.611,57.578C137.308,222.523,153.686,203.565,151.2,185.425Z" transform="translate(32.735 90.624)" fill="#e6e6e6"/><path d="M105.406,205.811c.513-7.452,12.4-21.121,41.008-14.9,20.672,4.487,28.365-6.218,28.365-6.218s-1.923,30.239-33.012,39.342C112.233,232.669,104.493,218.84,105.406,205.811Z" transform="translate(63.467 111.278)" fill="#e6e6e6"/><path d="M112.505,260.72a1.106,1.106,0,0,0,.849-.385c2.067-2.452.369-8.317-1.971-16.442-3.013-10.416-6.763-23.4-3.59-32.819a133.014,133.014,0,0,1,6.154-14.535c4.487-9.487,8.365-17.628,5.128-26.249a1.09,1.09,0,0,0-1.426-.641,1.122,1.122,0,0,0-.641,1.426c2.9,7.676-.609,15.112-5.064,24.518a138.553,138.553,0,0,0-6.25,14.775c-3.381,10.08.465,23.413,3.558,34.134,1.827,6.314,3.718,12.82,2.42,14.423a1.09,1.09,0,0,0,.128,1.6A1.057,1.057,0,0,0,112.505,260.72Z" transform="translate(62.89 102.17)" fill="#e6e6e6"/><g transform="translate(89.917 560.832)"><ellipse cx="310.712" cy="18.14" rx="310.712" ry="18.14" fill="#f5f5f5"/></g><g transform="translate(160.556 113.202)"><path d="M340.2,443.7H112.642L100.19,77.73H327.747Z" transform="translate(-100.19 -66.368)" fill="#1f4082"/><path d="M347.295,436.606H119.738L107.27,70.64H334.827Z" transform="translate(-95.924 -70.64)" fill="#1f4082"/><path d="M347.295,436.606H119.738L107.27,70.64H334.827Z" transform="translate(-95.924 -70.64)" fill="#fff" opacity="0.3"/><ellipse cx="62.931" cy="65.11" rx="62.931" ry="65.11" transform="matrix(0.701, -0.713, 0.713, 0.701, 38.152, 104.18)" fill="#1f4082"/><path d="M253.211,156.023a51.377,51.377,0,0,1-5.529,25.159,50.656,50.656,0,0,1-45.511,27.659,54.934,54.934,0,0,1-47.37-27.659,53.717,53.717,0,0,1-7.243-25.16,50.7,50.7,0,0,1,51.024-52.883A55.062,55.062,0,0,1,253.211,156.023Z" transform="translate(-71.679 -51.059)" fill="#fff"/><path d="M244.922,157.13A50.656,50.656,0,0,1,199.41,184.79a54.934,54.934,0,0,1-47.37-27.659A80.943,80.943,0,0,1,198,143.06,85.574,85.574,0,0,1,244.922,157.13Z" transform="translate(-68.95 -27.006)" fill="#1f4082" opacity="0.6"/><ellipse cx="23.14" cy="23.942" rx="23.14" ry="23.942" transform="matrix(0.701, -0.713, 0.713, 0.701, 94.795, 86.577)" fill="#1f4082" opacity="0.6"/><path d="M283.463,227.155H138.308l-.978-28.845H282.486Z" transform="translate(-77.813 6.283)" fill="#fff"/><path d="M284.569,259.325H139.4l-.978-28.845H283.592Z" transform="translate(-77.156 25.666)" fill="#fff"/><path d="M208.625,233.01l-34.983,4.808a2.452,2.452,0,0,0-2.115,2.9l4.6,23.445a2.8,2.8,0,0,0,3.109,2.179l34.983-4.808a2.436,2.436,0,0,0,2.1-2.885l-4.583-23.445A2.788,2.788,0,0,0,208.625,233.01Zm-10.048,23.733-6.41.865-.625-7.564a4.519,4.519,0,0,1-2.612-3.205,3.99,3.99,0,0,1,3.461-4.808,4.583,4.583,0,0,1,5.064,3.574,3.878,3.878,0,0,1-1.25,3.718Z" transform="translate(-57.235 27.174)" fill="#1f4082"/><path d="M204.63,239.441h0a2.5,2.5,0,0,1-2.756-1.939l-.449-2.292A13.189,13.189,0,0,0,187.612,224.7a11.218,11.218,0,0,0-10.352,13.445l.513,2.644a2.163,2.163,0,0,1-1.875,2.564h0a2.468,2.468,0,0,1-2.756-1.939l-.433-2.244a15.769,15.769,0,0,1,12.82-18.814,17.932,17.932,0,0,1,20.512,13.878l.513,2.644a2.163,2.163,0,0,1-1.923,2.564Z" transform="translate(-56.702 19.413)" fill="#1f4082"/><path d="M250.435,280.751h-94.5l-.625-18.781h94.484Z" transform="translate(-66.979 44.639)" fill="#1f4082"/><path d="M190.216,209.292a5.064,5.064,0,0,1-5.16,5.272,5.513,5.513,0,0,1-5.465-5.272,5.064,5.064,0,0,1,5.1-5.272A5.5,5.5,0,0,1,190.216,209.292Z" transform="translate(-52.352 9.723)" fill="#263238"/><path d="M175.966,209.292a5.048,5.048,0,0,1-5.1,5.272,5.5,5.5,0,0,1-5.449-5.272,5.064,5.064,0,0,1,5.1-5.272,5.481,5.481,0,0,1,5.449,5.272Z" transform="translate(-60.89 9.723)" fill="#263238"/><path d="M161.836,209.292a5.064,5.064,0,0,1-5.1,5.272,5.481,5.481,0,0,1-5.449-5.272,5.064,5.064,0,0,1,5.1-5.272A5.481,5.481,0,0,1,161.836,209.292Z" transform="translate(-69.403 9.723)" fill="#263238"/><path d="M204.357,209.3a5.064,5.064,0,0,1-5.1,5.272,5.481,5.481,0,0,1-5.449-5.272,5.048,5.048,0,0,1,5.112-5.3,5.481,5.481,0,0,1,5.432,5.3Z" transform="translate(-43.785 9.711)" fill="#263238"/><path d="M218.526,209.292a5.048,5.048,0,0,1-5.1,5.272,5.5,5.5,0,0,1-5.449-5.272,5.064,5.064,0,0,1,5.1-5.272,5.481,5.481,0,0,1,5.449,5.272Z" transform="translate(-35.247 9.723)" fill="#263238"/></g><g transform="translate(442.808 116.343)"><path d="M339.411,119.33c2.131,3.413,3.91,6.7,5.737,10.112s3.477,6.843,5.1,10.352a148,148,0,0,1,8.173,22c.288.945.5,1.955.737,2.933l.353,1.49.176.737.208,1.218a21.841,21.841,0,0,1-.5,8.253,46.728,46.728,0,0,1-5,11.955,94.894,94.894,0,0,1-14.23,18.7l-6.747-5.112a178.269,178.269,0,0,0,9.022-19.23,40.287,40.287,0,0,0,2.452-9.022,7.116,7.116,0,0,0-.128-2.837l-.641-1.955c-.256-.817-.5-1.6-.8-2.42a180.326,180.326,0,0,0-8.445-19.358c-3.205-6.41-6.65-12.82-10.1-18.942Z" transform="translate(-247.123 -44.444)" fill="#ff8b7b"/><path d="M334.012,169.47l-7.372,3.91,8.461,9.9s5.288-3.574,5.529-9.022Z" transform="translate(-246.003 -14.234)" fill="#ff8b7b"/><path d="M320.47,178.016l9.054,7.2,9.295-3.4-8.461-9.9Z" transform="translate(-249.72 -12.764)" fill="#ff8b7b"/><path d="M301.963,87.3c-.176.9-.8,1.6-1.378,1.394a1.513,1.513,0,0,1-.737-1.827c.176-.9.8-1.506,1.394-1.394S302.139,86.42,301.963,87.3Z" transform="translate(-262.174 -64.851)" fill="#263238"/><path d="M302.881,87.57a32.049,32.049,0,0,1-5.8,6.747,5.256,5.256,0,0,0,4.1,1.6Z" transform="translate(-263.813 -63.58)" fill="#ff5652"/><path d="M298.9,111.142V100.63l13.91,1.683s-.224,9.038-8.013,11.682Z" transform="translate(-262.716 -55.711)" fill="#ff8b7b"/><path d="M302.882,95.91l9.791,2.82.176,6.426-13.91-1.683Z" transform="translate(-262.692 -58.555)" fill="#ff8b7b"/><path d="M311.908,98.73l-9.791-2.82-1.907,3.654a15.593,15.593,0,0,0,9.038,13.589,15.32,15.32,0,0,0,2.836-8.013Z" transform="translate(-261.927 -58.555)" opacity="0.2"/><path d="M305.536,84.952a.545.545,0,0,0,.4-.9,5.32,5.32,0,0,0-4.551-1.763.528.528,0,1,0,.176,1.042h0a4.311,4.311,0,0,1,3.59,1.442.545.545,0,0,0,.385.176Z" transform="translate(-261.484 -66.779)" fill="#263238"/><path d="M325.91,96.73c-1.6,8.253-2.6,19.679,3.205,25.175,0,0-2.243,8.365-17.628,8.365-16.842,0-8.093-7.34-8.093-7.34,7-2.179,6.939-10.16,5.336-16.554Z" transform="translate(-261.378 -58.061)" fill="#ff8b7b"/><path d="M332.024,120.2c1.506-2.131,1.442-8.83-.16-10.016-2.58-1.923-13.653-2.356-28.541,1.074,1.6,6.506-1.843,9.9-1.843,9.9Z" transform="translate(-261.162 -50.844)" fill="#1f4082"/><path d="M352.991,354.176a3.605,3.605,0,0,1-2.82-.144,1.122,1.122,0,0,1-.256-1.25A1.282,1.282,0,0,1,350.6,352c1.522-.721,5.016.705,5.176.769a.24.24,0,0,1,.16.24.3.3,0,0,1-.144.24,14.554,14.554,0,0,1-2.8.929Zm-1.843-1.795-.3.1a.737.737,0,0,0-.417.465c-.144.481,0,.625.1.673.609.529,2.853,0,4.439-.593A9.024,9.024,0,0,0,351.148,352.381Z" transform="translate(-232.034 95.618)" fill="#407bff"/><path d="M355.077,354.424h-.128c-1.282-.369-4.006-2.308-4.038-3.59a.9.9,0,0,1,.689-.865,1.49,1.49,0,0,1,1.17.1c1.506.769,2.468,3.894,2.5,4.022a.272.272,0,0,1,0,.272Zm-3.205-3.99h-.128c-.321.112-.321.272-.321.353,0,.753,1.827,2.276,3.205,2.884-.336-.9-1.074-2.676-2.051-3.205a.929.929,0,0,0-.689-.032Z" transform="translate(-231.38 94.472)" fill="#407bff"/><path d="M301.171,355.477c-1.442,0-2.836-.192-3.3-.849a.994.994,0,0,1,0-1.154,1.282,1.282,0,0,1,.849-.625c1.875-.513,5.817,1.731,5.977,1.827a.24.24,0,0,1,.128.272.272.272,0,0,1-.208.224A19.8,19.8,0,0,1,301.171,355.477Zm-1.779-2.179a1.6,1.6,0,0,0-.513,0,.817.817,0,0,0-.529.369c-.192.337-.112.5,0,.593.529.721,3.365.753,5.465.449a12.193,12.193,0,0,0-4.423-1.41Z" transform="translate(-263.449 96.208)" fill="#407bff"/><path d="M303.493,356.184h-.112c-1.362-.625-4.054-3.061-3.846-4.327,0-.3.256-.673.994-.753a1.923,1.923,0,0,1,1.474.465,7.612,7.612,0,0,1,1.763,4.343.337.337,0,0,1-.112.24.305.305,0,0,1-.16.032Zm-2.756-4.567h-.16c-.481,0-.513.24-.513.3-.128.769,1.7,2.676,3.093,3.509a6.2,6.2,0,0,0-1.49-3.461,1.41,1.41,0,0,0-.945-.353Z" transform="translate(-262.341 95.196)" fill="#407bff"/><path d="M314.377,363.915H303.112l-1.122-26.1h11.266Z" transform="translate(-260.855 87.193)" fill="#ff8b7b"/><path d="M369.653,359.99l-11.009,2.388L347.57,338.052,358.6,335.68Z" transform="translate(-233.392 85.91)" fill="#ff8b7b"/><path d="M359.833,352.67l12.387-2.692a.978.978,0,0,1,1.09.561l4.295,9.311a1.6,1.6,0,0,1-1.186,2.308c-4.327.865-6.49,1.074-11.923,2.243-3.349.721-10.913,2.564-15.544,3.574s-6.218-3.445-4.407-4.263c8.093-3.7,11.458-6.955,13.653-9.984A2.676,2.676,0,0,1,359.833,352.67Z" transform="translate(-235.655 94.512)" fill="#263238"/><path d="M312.967,353.29h12.307a.994.994,0,0,1,.961.769l2.228,10.016a1.6,1.6,0,0,1-1.6,2c-4.439,0-10.849-.337-16.426-.337-6.538,0-12.163.369-19.823.369-4.631,0-5.913-4.679-3.974-5.112,8.814-1.923,16.025-2.131,23.637-6.827a5.241,5.241,0,0,1,2.692-.881Z" transform="translate(-270.63 96.52)" fill="#263238"/><path d="M336.51,114.111c10.561,2.42,19.23,29.39,19.23,29.39l-21.105,16.217a46.36,46.36,0,0,1-11.218-20.833C319.683,124.751,325.709,111.675,336.51,114.111Z" transform="translate(-248.613 -47.766)" fill="#407bff"/><path d="M336.51,114.111c10.561,2.42,19.23,29.39,19.23,29.39l-21.105,16.217a46.36,46.36,0,0,1-11.218-20.833C319.683,124.751,325.709,111.675,336.51,114.111Z" transform="translate(-248.613 -47.766)" opacity="0.4"/><path d="M308.658,152.125c-2.628,2.852-5.256,5.384-8.013,8.013-1.362,1.3-2.74,2.564-4.15,3.814l-2.131,1.859-.529.465c-.256.224-.577.5-.913.753a13.959,13.959,0,0,1-3.093,1.827,10.384,10.384,0,0,1-3.91.8,9.615,9.615,0,0,1-3.365-.593,9.471,9.471,0,0,1-3.205-2.035,9.615,9.615,0,0,1-2.5-4.151,10.918,10.918,0,0,1-.465-2.388,16.378,16.378,0,0,1,0-2.868c.08-.769.176-1.426.3-2.051a39.891,39.891,0,0,1,1.859-6.41,58.744,58.744,0,0,1,2.484-5.785c1.026-2.035,2-3.526,2.981-5.224a130.845,130.845,0,0,1,13.541-18.365,124.062,124.062,0,0,1,16.426-15.576l5.9,6.074c-4.134,5.545-8.2,11.49-11.971,17.339a184.1,184.1,0,0,0-10.256,18.028c-.689,1.506-1.6,3.205-2.035,4.423a42.986,42.986,0,0,0-1.49,4.327,27.511,27.511,0,0,0-.914,4.038,6.02,6.02,0,0,0,0,.641v-.16a4.518,4.518,0,0,0-.208-1.042,6.875,6.875,0,0,0-1.843-2.981,7.756,7.756,0,0,0-5.336-2.163,6.538,6.538,0,0,0-2.58.5c-.785.337-.8.433-.8.385l.609-.561,1.939-1.763,3.83-3.59c2.532-2.388,5.08-4.936,7.484-7.291Z" transform="translate(-276.321 -53.555)" fill="#ff8b7b"/><path d="M327.279,126.41c5.737,5.673,7.612,16.025,8.013,25l-.929.721A46.361,46.361,0,0,1,323.145,131.3c-.208-.849-.4-1.683-.545-2.516Z" transform="translate(-248.437 -40.179)" opacity="0.2"/><path d="M290.235,126.426c-2.308,12.179-3.75,37.194,2.933,86.712h60.351c.417-9.263-5.4-54.405,3.526-98.01a158.649,158.649,0,0,0-20.192-2.548,220.321,220.321,0,0,0-25.64,0c-2.82.256-5.609.673-8.013,1.106a16.025,16.025,0,0,0-12.964,12.74Z" transform="translate(-269.099 -48.736)" fill="#407bff"/><path d="M290.235,126.426c-2.308,12.179-3.75,37.194,2.933,86.712h60.351c.417-9.263-5.4-54.405,3.526-98.01a158.649,158.649,0,0,0-20.192-2.548,220.321,220.321,0,0,0-25.64,0c-2.82.256-5.609.673-8.013,1.106a16.025,16.025,0,0,0-12.964,12.74Z" transform="translate(-269.099 -48.736)" opacity="0.4"/><path d="M299.462,133.286l-10.9-2.6c-.336,6.586-.369,14.775.112,24.887C293.692,149.856,300.1,140.962,299.462,133.286Z" transform="translate(-269.095 -37.6)" opacity="0.2"/><path d="M301.99,337.82l.577,13.445h11.282l-.577-13.445Z" transform="translate(-260.855 87.199)" opacity="0.2"/><path d="M358.6,335.68l-11.025,2.388,5.7,12.532,11.025-2.388Z" transform="translate(-233.392 85.91)" opacity="0.2"/><path d="M332.547,96.494c-2.885,10.817-4.038,17.275-10.7,21.778-10.016,6.747-22.515-1.01-22.836-12.484-.353-10.32,4.439-26.249,16.025-28.429a15.256,15.256,0,0,1,17.515,19.134Z" transform="translate(-262.663 -69.892)" fill="#ff8b7b"/><path d="M304.78,95.8c-.545-1.442-3.029-12.612-.689-15.512s29.022-.817,32.964,3.077c6.554,6.41,2,12.179-5.16,19.6-5.384,5.577-5.593,11.859-8.317,12.82-4.808,1.6-12.147.1-13.621-4.984S304.78,95.8,304.78,95.8Z" transform="translate(-260.183 -68.784)" fill="#263238"/><path d="M336.054,74.475c-9.423-4.022-27.1.433-36.649-1.875a14.711,14.711,0,0,0,12.179,15.064,125.2,125.2,0,0,0,24.038,2.211C346.117,89.394,344.066,77.888,336.054,74.475Z" transform="translate(-262.419 -72.6)" fill="#263238"/><path d="M323.19,82.633a17.884,17.884,0,0,0,9.984-1.923C334.936,84.973,325.241,86.143,323.19,82.633Z" transform="translate(-248.081 -67.714)" fill="#263238"/><path d="M310.643,91.5a12.628,12.628,0,0,1-3.205,7.468c-2.468,2.708-5.032,1.026-5.465-2.276-.385-2.965.417-8.013,3.429-9.439S310.852,88.148,310.643,91.5Z" transform="translate(-260.918 -64.03)" fill="#ff8b7b"/><path d="M304.69,175.2s12.82,86.135,19.823,118.41c7.676,35.255,48.925,152.239,48.925,152.239l20.176-4.359S364.768,346.2,358.358,296.795c-4.968-37.948-14.727-121.615-14.727-121.615Z" transform="translate(-259.228 -10.794)" fill="#1f4082"/><path d="M344.57,341.559c-.08,0,3.766,7.291,3.766,7.291l22.692-4.9-1.907-6.827Z" transform="translate(-235.2 86.777)" fill="#263238"/><path d="M310.993,194.385c14.791,2.9,13.221,58.059,11.442,86.424-4.263-20.047-10.513-58.636-14.775-86.023A5.048,5.048,0,0,1,310.993,194.385Z" transform="translate(-257.438 0.705)" opacity="0.3"/><path d="M291.647,175.214s-1.6,84.276-.321,118.586c1.282,35.752,13.766,152.816,13.766,152.816h19.1s.689-114.98,1.6-150.092c.929-38.284,5.545-121.374,5.545-121.374Z" transform="translate(-267.579 -10.812)" fill="#1f4082"/><path d="M297.442,339.84c-.1,0,1.074,8.013,1.074,8.013h23.22l.641-7.067Z" transform="translate(-263.598 88.416)" fill="#263238"/><path d="M319.325,129.542c5.4,14.567-26.345,31.714-26.345,31.714l-13.75-17.628s9.247-18.285,20.464-26.522C313.556,106.946,315.206,118.452,319.325,129.542Z" transform="translate(-274.568 -48.15)" fill="#407bff"/><path d="M319.325,129.542c5.4,14.567-26.345,31.714-26.345,31.714l-13.75-17.628s9.247-18.285,20.464-26.522C313.556,106.946,315.206,118.452,319.325,129.542Z" transform="translate(-274.568 -48.15)" opacity="0.4"/></g><g transform="translate(526.843 13.429)"><ellipse cx="57.835" cy="36.858" rx="57.835" ry="36.858" transform="translate(27.275)" fill="#1f4082"/><path d="M374.915,55.262A16.185,16.185,0,0,1,359,41.8a16.378,16.378,0,0,1,12.355-18.589h0A16.121,16.121,0,0,1,388.7,30.455l37.13-7.676a5.817,5.817,0,0,1,6.795,4.006,5.593,5.593,0,0,1-4.279,6.907l-.962.192a.946.946,0,0,0-.673.5,1.01,1.01,0,0,0,0,.833l.657,1.7a2.516,2.516,0,0,1-.994,3.077,3.109,3.109,0,0,0-1.426,2.276,2.516,2.516,0,0,1-1.939,2.227l-.753.144a2.468,2.468,0,0,1-2.66-1.266,3.109,3.109,0,0,0-5.785,1.186,2.484,2.484,0,0,1-1.923,2.228l-.753.16a2.516,2.516,0,0,1-2.66-1.282,3.093,3.093,0,0,0-2.227-1.506A2.548,2.548,0,0,1,404,41.721V39.894a.946.946,0,0,0-.385-.737.913.913,0,0,0-.8-.192L390.973,41.4a16.137,16.137,0,0,1-12.74,13.445,15.528,15.528,0,0,1-3.317.417ZM371.71,24.815a14.759,14.759,0,0,0-11.218,16.7,14.583,14.583,0,0,0,28.845-.817v-.577L402.4,37.394a2.548,2.548,0,0,1,2.131.5,2.6,2.6,0,0,1,.994,1.939v1.811a.962.962,0,0,0,.769.929,4.663,4.663,0,0,1,3.381,2.292.929.929,0,0,0,.945.513l.737-.16a.913.913,0,0,0,.673-.849,4.711,4.711,0,0,1,8.766-1.795.881.881,0,0,0,.929.5l.769-.144a.9.9,0,0,0,.657-.849,4.647,4.647,0,0,1,2.2-3.429.977.977,0,0,0,.337-1.154l-.657-1.7a2.6,2.6,0,0,1,1.891-3.477l.978-.192a3.91,3.91,0,0,0,2.58-1.811,3.959,3.959,0,0,0,.481-3.125,4.215,4.215,0,0,0-4.936-2.836l-38.044,7.9-.288-.5A14.5,14.5,0,0,0,371.71,24.815Zm3.205,24.5A10.224,10.224,0,1,1,377,49.109h0a10.206,10.206,0,0,1-2.067.16Zm0-18.926a9.615,9.615,0,0,0-1.779.176,8.67,8.67,0,0,0,3.622,16.923h0a8.67,8.67,0,0,0-1.715-17.147Z" transform="translate(-310.671 0.217)" fill="#fff"/><ellipse cx="19.006" cy="12.115" rx="19.006" ry="12.115" transform="translate(19.038 71.104)" fill="#1f4082" opacity="0.6"/><ellipse cx="7.804" cy="4.968" rx="7.804" ry="4.968" transform="translate(0 90.35)" fill="#407bff" opacity="0.3"/></g></g></svg>